<mxGraphModel dx="0" dy="0" grid="1" gridSize="10" guides="1" tooltips="1" connect="1" arrows="1" fold="1" page="0" pageScale="1" background="none" math="0" shadow="0">
  <root>
    <mxCell id="0" />
    <mxCell id="1" parent="0" />
    <mxCell id="node3" parent="1" vertex="1" value="&lt;p style=&quot;margin:0px;margin-top:4px;text-align:center;&quot;&gt;&lt;b&gt;Entrenador&lt;/b&gt;&lt;/p&gt;&lt;hr size=&quot;1&quot;/&gt;&lt;p style=&quot;margin:0 0 0 4px;line-height:1.6;&quot;&gt;- selecionadorNacional: boolean&lt;br/&gt;- souAnual: double&lt;br/&gt;- dataNeixament: String&lt;br/&gt;- nivellMotivacio: int&lt;br/&gt;- numTorneigsGuanyats: int&lt;/p&gt;&lt;hr size=&quot;1&quot;/&gt;&lt;p style=&quot;margin:0 0 0 4px;line-height:1.6;&quot;&gt;+ setSouAnual(double): void&lt;br/&gt;+ aumentarSouAnual(double): double&lt;br/&gt;+ getNivellMotivacio(): int&lt;br/&gt;+ setNivellMotivacio(int): void&lt;br/&gt;+ getNumTorneigsGuanyats(): int&lt;br/&gt;+ setSelecionadorNacional(boolean): void&lt;br/&gt;+ toString(): String&lt;br/&gt;+ getSouAnual(): double&lt;br/&gt;+ calcularIncrement(): double&lt;br/&gt;+ getDataNeixament(): String&lt;br/&gt;+ setNumTorneigsGuanyats(int): void&lt;br/&gt;+ isSelecionadorNacional(): boolean&lt;/p&gt;" style="verticalAlign=top;align=left;overflow=fill;fontSize=14;fontFamily=Helvetica;html=1;rounded=0;shadow=0;comic=0;labelBackgroundColor=none;strokeWidth=1;">
      <mxGeometry x="345" y="2220" width="292" height="448" as="geometry" />
    </mxCell>
    <mxCell id="node4" parent="1" vertex="1" value="&lt;p style=&quot;margin:0px;margin-top:4px;text-align:center;&quot;&gt;&lt;b&gt;Equip&lt;/b&gt;&lt;/p&gt;&lt;hr size=&quot;1&quot;/&gt;&lt;p style=&quot;margin:0 0 0 4px;line-height:1.6;&quot;&gt;- nomEquip: String&lt;br/&gt;- president: President&lt;br/&gt;- partitsPerduts: int&lt;br/&gt;- partitsGuanyats: int&lt;br/&gt;- anyFundacio: int&lt;br/&gt;- jugadors: ArrayList&amp;lt;Jugador&amp;gt;&lt;br/&gt;- nomEstadi: String&lt;br/&gt;- golsRebuts: int&lt;br/&gt;- ciutat: String&lt;br/&gt;- entrenador: Entrenador&lt;br/&gt;- golsMarcats: int&lt;/p&gt;&lt;hr size=&quot;1&quot;/&gt;&lt;p style=&quot;margin:0 0 0 4px;line-height:1.6;&quot;&gt;+ setPartitsGuanyats(int): void&lt;br/&gt;+ assignarEntrenadorAlEquip(): void&lt;br/&gt;+ setPartitsPerduts(int): void&lt;br/&gt;+ getAnyFundacio(): int&lt;br/&gt;+ getGolsRebuts(): int&lt;br/&gt;+ setCiutat(String): void&lt;br/&gt;+ getPresident(): President&lt;br/&gt;+ getCiutat(): String&lt;br/&gt;+ getPartitsGuanyats(): int&lt;br/&gt;+ assignarUnJugadorAlEquip(): void&lt;br/&gt;+ setNomEstadi(String): void&lt;br/&gt;+ setNomEquip(String): void&lt;br/&gt;+ getNomEquip(): String&lt;br/&gt;+ getEntrenador(): Entrenador&lt;br/&gt;+ getGolsMarcats(): int&lt;br/&gt;+ setJugadors(ArrayList&amp;lt;Jugador&amp;gt;): void&lt;br/&gt;+ getPartitsPerduts(): int&lt;br/&gt;+ setEntrenador(Entrenador): void&lt;br/&gt;+ setAnyFundacio(int): void&lt;br/&gt;+ setPresident(President): void&lt;br/&gt;+ getJugadors(): ArrayList&amp;lt;Jugador&amp;gt;&lt;br/&gt;+ getNomEstadi(): String&lt;br/&gt;+ setGolsMarcats(int): void&lt;br/&gt;+ addJugador(Jugador): void&lt;br/&gt;+ setJugador(Jugador): void&lt;br/&gt;+ setGolsRebuts(int): void&lt;br/&gt;+ toString(): String&lt;/p&gt;" style="verticalAlign=top;align=left;overflow=fill;fontSize=14;fontFamily=Helvetica;html=1;rounded=0;shadow=0;comic=0;labelBackgroundColor=none;strokeWidth=1;">
      <mxGeometry x="-111" y="903" width="290" height="952" as="geometry" />
    </mxCell>
    <mxCell id="node5" parent="1" vertex="1" value="&lt;p style=&quot;margin:0px;margin-top:4px;text-align:center;&quot;&gt;&lt;b&gt;GameMechanics&lt;/b&gt;&lt;/p&gt;&lt;hr size=&quot;1&quot;/&gt;&lt;p style=&quot;margin:0 0 0 4px;line-height:1.6;&quot;&gt;+ obtenerIndiceValidoE(ArrayList&amp;lt;Entrenador&amp;gt;): int&lt;br/&gt;+ equipsToTxt(Map&amp;lt;String, Integer&amp;gt;): String&lt;br/&gt;+ arrayListMercatJugadors(Path): ArrayList&amp;lt;Jugador&amp;gt;&lt;br/&gt;+ pedirNivellMotivacio(): int&lt;br/&gt;+ agregarEntrenador(Equip): void&lt;br/&gt;+ missatgeCapitalPresident(): void&lt;br/&gt;+ guardarPartida(Lliga, ArrayList&amp;lt;Equip&amp;gt;, ArrayList&amp;lt;Jugador&amp;gt;, ArrayList&amp;lt;Entrenador&amp;gt;): void&lt;br/&gt;+ guardarLliga(Lliga): void&lt;br/&gt;+ guardarPartidaFitxerFitxatges(ArrayList&amp;lt;ProfessionalDeportivo&amp;gt;): void&lt;br/&gt;+ mercatFitxatgesJugadors(Lliga, ArrayList&amp;lt;Jugador&amp;gt;, ArrayList&amp;lt;Equip&amp;gt;): void&lt;br/&gt;+ unificarFitxerMercat(ArrayList&amp;lt;Jugador&amp;gt;, ArrayList&amp;lt;Entrenador&amp;gt;): ArrayList&amp;lt;ProfessionalDeportivo&amp;gt;&lt;br/&gt;+ missatgeCrearNovaLligaNovaPartida(): void&lt;br/&gt;+ introduirInput(): void&lt;br/&gt;+ dadesSonValides(String[]): boolean&lt;br/&gt;+ borrarEquip(ArrayList&amp;lt;Equip&amp;gt;, int): void&lt;br/&gt;+ registrarEquip(Lliga, ArrayList&amp;lt;Equip&amp;gt;): void&lt;br/&gt;+ mostrarInfoJugador(Jugador): void&lt;br/&gt;+ buscarJugadorPerDorsal(int, ArrayList&amp;lt;Jugador&amp;gt;): Jugador?&lt;br/&gt;+ mostrarMensajeMercadoVacioE(): void&lt;br/&gt;+ actualitzarPuntsEquip(Lliga, String, int): void&lt;br/&gt;+ deserialitzarJugadors(String): ArrayList&amp;lt;Jugador&amp;gt;&lt;br/&gt;+ llegirLinia(Path): String?&lt;br/&gt;+ funcionsSubMenuEquip(Lliga, ArrayList&amp;lt;Equip&amp;gt;): void&lt;br/&gt;+ missatgePresidenNom(): void&lt;br/&gt;+ cargarLliga(String): Lliga?&lt;br/&gt;+ missatgeRegistreNomCiutatEquip(): void&lt;br/&gt;+ esIndiceValidoE(int, ArrayList&amp;lt;Entrenador&amp;gt;): boolean&lt;br/&gt;+ serialitzarPresident(President): String&lt;br/&gt;+ mostrarMissatgeDesotivacio2(): void&lt;br/&gt;+ opcioSiNo(): boolean&lt;br/&gt;+ missatgeSortir(): void&lt;br/&gt;+ pedirNomEntrenador(): String&lt;br/&gt;+ donarBaixaEquip(Lliga, ArrayList&amp;lt;Equip&amp;gt;): void&lt;br/&gt;+ crearNouEquip(): Equip&lt;br/&gt;+ simularPartido(): int&lt;br/&gt;+ missatgeFitxar(): void&lt;br/&gt;+ agregarJugadors(Equip): void&lt;br/&gt;+ seleccioPathFitxerPartidaLliga(): Path&lt;br/&gt;+ aumentarSouAnualEntrenador(Entrenador): void&lt;br/&gt;+ funcionsMenuPrincipal(): void&lt;br/&gt;+ missatgeEquipNoTrobat(): void&lt;br/&gt;+ deserialitzarEntrenador(String): Entrenador?&lt;br/&gt;+ visualitzarMenuEnPartida(): void&lt;br/&gt;+ fitxerExisteix(Path): boolean&lt;br/&gt;+ trobarEquipJugador(Lliga, ArrayList&amp;lt;Equip&amp;gt;): Equip?&lt;br/&gt;+ pedirCognomEntrenador(): String&lt;br/&gt;+ mostrarDatosJugadorSeleccionado(ArrayList&amp;lt;Jugador&amp;gt;): Jugador?&lt;br/&gt;+ missatgeEntrenadorCanviTrue(): void&lt;br/&gt;+ destituirIRegistrarNouEntrenador(Lliga, ArrayList&amp;lt;Equip&amp;gt;): void&lt;br/&gt;+ mostrarMissatgeJugadorFitxat(): void&lt;br/&gt;+ mostrarMissatgeEntrenadorAltaFalse(): void&lt;br/&gt;+ serialitzarJugador(Jugador): String&lt;br/&gt;+ missatgePresidenCanviTrue(): void&lt;br/&gt;+ simularJornadas(Lliga, int): void&lt;br/&gt;+ mostrarMissatgeJugadorAltaFalse(): void&lt;br/&gt;+ scanString(): String&lt;br/&gt;+ missatgeRegistreNomEquip(): void&lt;br/&gt;+ registrarJornades(): int&lt;br/&gt;+ noEquiposRegistrados(): void&lt;br/&gt;+ mostrarClasificacioLliga(Lliga): void&lt;br/&gt;+ mostrarMensajeIndiceFueraDeRangoJ(ArrayList&amp;lt;Jugador&amp;gt;): void&lt;br/&gt;+ obtenerIndiceValidoJ(ArrayList&amp;lt;Jugador&amp;gt;): int&lt;br/&gt;+ seleccioPathFitxerPartidaEquips(): Path&lt;br/&gt;+ transferirJugador(ArrayList&amp;lt;Equip&amp;gt;): void&lt;br/&gt;+ finalizarLliga(Lliga): void&lt;br/&gt;+ validarPosicions(): String&lt;br/&gt;+ scanInt(): int&lt;br/&gt;+ crearNovaLliga(): Lliga&lt;br/&gt;+ mostraRankingLiga(Lliga): void&lt;br/&gt;+ mostrarDadesEquips(Lliga, ArrayList&amp;lt;Equip&amp;gt;): void&lt;br/&gt;+ mostrarMensajeEntradaInvalida(): void&lt;br/&gt;+ pedirSouAnualJugador(): double&lt;br/&gt;+ missategBorrarEquipTrue(): void&lt;br/&gt;+ mostrarMensajeEleccioFitxatge(): void&lt;br/&gt;+ mostrarJugadorIndexat(Jugador, int): void&lt;br/&gt;+ pedirNumDorsalJugador(): int&lt;br/&gt;+ mostrarMissatgeJugadorAltaTrue(): void&lt;br/&gt;+ missatgeCrearNovaLligaCodiLliga(): void&lt;br/&gt;+ canviarPosiciojugador(Lliga, ArrayList&amp;lt;Equip&amp;gt;): void&lt;br/&gt;+ mostrarMensajeIndiceFueraDeRangoE(ArrayList&amp;lt;Entrenador&amp;gt;): void&lt;br/&gt;+ gestionarLliga(Lliga): void&lt;br/&gt;+ guardarEnFitxer(String): void&lt;br/&gt;+ valorEsPositiu(int): boolean&lt;br/&gt;+ comprobarEquipEnLliga(Lliga, String): boolean&lt;br/&gt;+ esMercadoVacioJ(ArrayList&amp;lt;Jugador&amp;gt;): boolean&lt;br/&gt;+ deserialitzarPresident(String): President?&lt;br/&gt;+ visualitzarOpcionsMercatFitxatges(): void&lt;br/&gt;+ mostrarMissatgeDesotivacio1(): void&lt;br/&gt;+ pedirDataNaixementEntrenador(): String&lt;br/&gt;+ visualitzarSubMenuEquip(): void&lt;br/&gt;+ calcularEquipGuanyador(Lliga): String&lt;br/&gt;+ pedirCognomJugador(): String&lt;br/&gt;+ pedirDataNaixementJugador(): String&lt;br/&gt;+ missatgeEntrenadorCanviFalse(): void&lt;br/&gt;+ mostrarMensajeMercadoVacioJ(): void&lt;br/&gt;+ mostrarMercatJugadorsIndexat(ArrayList&amp;lt;Jugador&amp;gt;): void&lt;br/&gt;+ funcionsMenuEnPartida(Lliga, ArrayList&amp;lt;Equip&amp;gt;, ArrayList&amp;lt;Jugador&amp;gt;, ArrayList&amp;lt;Entrenador&amp;gt;): void&lt;br/&gt;+ missatgeCrearNovaLligaNumJornades(): void&lt;br/&gt;+ missatgePresidenCanviFalse(): void&lt;br/&gt;+ pedirSouAnualEntrenador(): double&lt;br/&gt;+ nouJugador(): Jugador&lt;br/&gt;+ pedirPosicioJugador(): String&lt;br/&gt;+ missatgePresidenCognom(): void&lt;br/&gt;+ seleccioPathFitxerPartidaFitxatges(): Path&lt;br/&gt;+ mostrarInfoEntrenador(Entrenador): void&lt;br/&gt;+ mostrarMensajePedirIndice(): void&lt;br/&gt;+ mostrarMissatgeMotivacio1(): void&lt;br/&gt;+ carregarLliga(): Lliga?&lt;br/&gt;+ mostrarDadesJugador(Lliga, ArrayList&amp;lt;Equip&amp;gt;): void&lt;br/&gt;+ missatgeGuardatTrue(): void&lt;br/&gt;+ visualitzacioMenuPrincipal(): void&lt;br/&gt;+ pedirIndiceJugador(ArrayList&amp;lt;Jugador&amp;gt;): int&lt;br/&gt;+ missategBorrarEquipFalse(): void&lt;br/&gt;+ mercatFitxatgesEntrenadors(Lliga, ArrayList&amp;lt;Entrenador&amp;gt;, ArrayList&amp;lt;Equip&amp;gt;): void&lt;br/&gt;+ nombreEquipsCoincideix(Map&amp;lt;String, Integer&amp;gt;, int): boolean&lt;br/&gt;+ serialitzarEquip(Equip): String&lt;br/&gt;+ mostraClasificacioLiga(Lliga): void&lt;br/&gt;+ esIndiceValidoJ(int, ArrayList&amp;lt;Jugador&amp;gt;): boolean&lt;br/&gt;+ serialitzarEntrenador(Entrenador): String&lt;br/&gt;+ fucionsElecioMercatfitxatges(Lliga, ArrayList&amp;lt;Equip&amp;gt;, ArrayList&amp;lt;Jugador&amp;gt;, ArrayList&amp;lt;Entrenador&amp;gt;): void&lt;br/&gt;+ pedirIndiceEntrenador(ArrayList&amp;lt;Entrenador&amp;gt;): int&lt;br/&gt;+ registrarNouJugadorIEntrenador(Lliga, ArrayList&amp;lt;Equip&amp;gt;): void&lt;br/&gt;+ esMercadoVacioE(ArrayList&amp;lt;Entrenador&amp;gt;): boolean&lt;br/&gt;+ obtenerJugadorSeleccionado(ArrayList&amp;lt;Jugador&amp;gt;): Jugador&lt;br/&gt;+ nouEntrenador(): Entrenador&lt;br/&gt;+ mostrarMissatgeSenseCanvi(): void&lt;br/&gt;+ seleccionarNomEquip(): void&lt;br/&gt;+ mostrarLlistaEntrenadorsIndexada(ArrayList&amp;lt;Entrenador&amp;gt;): void&lt;br/&gt;+ lligaToTxt(Lliga): String&lt;br/&gt;+ missatgeRegistrarNouEntrenador(): void&lt;br/&gt;+ aumentarSouEntrenador(Lliga, ArrayList&amp;lt;Equip&amp;gt;): void&lt;br/&gt;+ deserialitzarEquip(String): Equip&lt;br/&gt;+ missatgeErrorRegistrarEntrenadorJugador(): void&lt;br/&gt;+ obtenerEntrenadorSeleccionado(ArrayList&amp;lt;Entrenador&amp;gt;): Entrenador&lt;br/&gt;+ mostrarMissatgeMercatBuit(): void&lt;br/&gt;+ mostrarMissatgeEntrenadorAltaTrue(): void&lt;br/&gt;+ mostrarDatosEntrenadorSeleccionado(ArrayList&amp;lt;Entrenador&amp;gt;): Entrenador?&lt;br/&gt;+ arrayListMercatEntrenadors(Path): ArrayList&amp;lt;Entrenador&amp;gt;&lt;br/&gt;+ pedirNumTorneigsGuanyats(): int&lt;br/&gt;+ missatgeGuardatFalse(IOException): void&lt;br/&gt;+ seleccioPathFitxerOriginalFitxatges(): Path&lt;br/&gt;+ mostrarMenuGestionarLliga(): void&lt;br/&gt;+ parsejarEquips(String[]): Map&amp;lt;String, Integer&amp;gt;&lt;br/&gt;+ esSeleccionadorNacional(): boolean&lt;br/&gt;+ eleccioDonarAlta(ArrayList&amp;lt;Jugador&amp;gt;, ArrayList&amp;lt;Entrenador&amp;gt;): void&lt;br/&gt;+ guardarEquipsEnFitxer(ArrayList&amp;lt;Equip&amp;gt;): void&lt;br/&gt;+ missatgeRegistreNomEstadiEquip(): void&lt;br/&gt;+ modificarPresident(Lliga, ArrayList&amp;lt;Equip&amp;gt;): void&lt;br/&gt;+ mostrarEntrenadorIndexat(Entrenador, int): void&lt;br/&gt;+ missatgeEntrenadorDestituit(): void&lt;br/&gt;+ mostrarMissatgeOpcioInvalida(): void&lt;br/&gt;+ missatgeRegistreAnyEquip(): void&lt;br/&gt;+ visualitzarElecioMercatfitxatges(): void&lt;br/&gt;+ mostrarLlistaJugadorsIndexada(ArrayList&amp;lt;Jugador&amp;gt;): void&lt;br/&gt;+ carregarEquipsDeFitxer(): ArrayList&amp;lt;Equip&amp;gt;&lt;br/&gt;+ parsejarEnter(String, String): int&lt;br/&gt;+ mostrarMissatgeMotivacio2(): void&lt;br/&gt;+ selecionarEquip(ArrayList&amp;lt;Equip&amp;gt;, String): int&lt;br/&gt;+ disputarNuevaLliga(Lliga): void&lt;br/&gt;+ pedirNomJugador(): String&lt;br/&gt;+ simularJornada(Lliga, int): void&lt;br/&gt;+ mostrarMercatEntrenadorsIndexat(ArrayList&amp;lt;Entrenador&amp;gt;): void&lt;br/&gt;+ scanDouble(): double&lt;/p&gt;" style="verticalAlign=top;align=left;overflow=fill;fontSize=14;fontFamily=Helvetica;html=1;rounded=0;shadow=0;comic=0;labelBackgroundColor=none;strokeWidth=1;">
      <mxGeometry x="721" y="-13" width="642" height="3951" as="geometry" />
    </mxCell>
    <mxCell id="node0" parent="1" vertex="1" value="&lt;p style=&quot;margin:0px;margin-top:4px;text-align:center;&quot;&gt;&lt;b&gt;Jugador&lt;/b&gt;&lt;/p&gt;&lt;hr size=&quot;1&quot;/&gt;&lt;p style=&quot;margin:0 0 0 4px;line-height:1.6;&quot;&gt;- POSICIONS: String[]&lt;br/&gt;- posicio: String&lt;br/&gt;- preuJugador: double&lt;br/&gt;- nivellMotivacio: int&lt;br/&gt;- numDorsal: int&lt;br/&gt;- dataNeixament: String&lt;br/&gt;- rendiment: int&lt;br/&gt;- PROBABILITAT_CANVI: int&lt;/p&gt;&lt;hr size=&quot;1&quot;/&gt;&lt;p style=&quot;margin:0 0 0 4px;line-height:1.6;&quot;&gt;+ getPosicio(): String&lt;br/&gt;+ setPosicio(String): void&lt;br/&gt;+ getPreu(): double&lt;br/&gt;+ canviNovaPosicio(): String&lt;br/&gt;+ incrementarODisminuirMotivacio(int): void&lt;br/&gt;+ getNumDorsal(): int&lt;br/&gt;+ getNivellMotivacio(): int&lt;br/&gt;+ getRendiment(): int&lt;br/&gt;+ mostrarNovaPosicio(): void&lt;br/&gt;+ setRendiment(int): void&lt;br/&gt;+ toString(): String&lt;br/&gt;+ esCanviDePosicio(): boolean&lt;br/&gt;+ numRandom(): int&lt;br/&gt;+ setNivellMotivacio(int): void&lt;br/&gt;+ CanviDePosicio(): void&lt;br/&gt;+ imprimirDades(): void&lt;br/&gt;+ getDataNeixament(): String&lt;/p&gt;" style="verticalAlign=top;align=left;overflow=fill;fontSize=14;fontFamily=Helvetica;html=1;rounded=0;shadow=0;comic=0;labelBackgroundColor=none;strokeWidth=1;">
      <mxGeometry x="-22" y="2092" width="306" height="640" as="geometry" />
    </mxCell>
    <mxCell id="node2" parent="1" vertex="1" value="&lt;p style=&quot;margin:0px;margin-top:4px;text-align:center;&quot;&gt;&lt;b&gt;Lliga&lt;/b&gt;&lt;/p&gt;&lt;hr size=&quot;1&quot;/&gt;&lt;p style=&quot;margin:0 0 0 4px;line-height:1.6;&quot;&gt;- numEquips: int&lt;br/&gt;- jornades: int&lt;br/&gt;- codiLliga: String&lt;br/&gt;- jornadasSimuladas: int&lt;br/&gt;- registreEquips: HashMap&amp;lt;String, Integer&amp;gt;&lt;/p&gt;&lt;hr size=&quot;1&quot;/&gt;&lt;p style=&quot;margin:0 0 0 4px;line-height:1.6;&quot;&gt;+ getNumEquips(): int&lt;br/&gt;+ setRegistreEquips(HashMap&amp;lt;String, Integer&amp;gt;): void&lt;br/&gt;+ setNumEquips(int): void&lt;br/&gt;+ getRegistreEquips(): HashMap&amp;lt;String, Integer&amp;gt;&lt;br/&gt;+ getJornades(): int&lt;br/&gt;+ setJornadasSimuladas(int): void&lt;br/&gt;+ registrarJornades(): int&lt;br/&gt;+ getCodiLliga(): String&lt;br/&gt;+ toString(): String&lt;br/&gt;+ getJornadasSimuladas(): int&lt;br/&gt;+ setCodiLliga(String): void&lt;br/&gt;+ setJornades(int): void&lt;/p&gt;" style="verticalAlign=top;align=left;overflow=fill;fontSize=14;fontFamily=Helvetica;html=1;rounded=0;shadow=0;comic=0;labelBackgroundColor=none;strokeWidth=1;">
      <mxGeometry x="267" y="1287" width="369" height="448" as="geometry" />
    </mxCell>
    <mxCell id="node7" parent="1" vertex="1" value="&lt;p style=&quot;margin:0px;margin-top:4px;text-align:center;&quot;&gt;&lt;b&gt;Main&lt;/b&gt;&lt;/p&gt;&lt;hr size=&quot;1&quot;/&gt;&lt;p style=&quot;margin:0 0 0 4px;line-height:1.6;&quot;&gt;+ main(String[]): void&lt;br/&gt;+ game(): void&lt;/p&gt;" style="verticalAlign=top;align=left;overflow=fill;fontSize=14;fontFamily=Helvetica;html=1;rounded=0;shadow=0;comic=0;labelBackgroundColor=none;strokeWidth=1;">
      <mxGeometry x="151" y="1915" width="164" height="94" as="geometry" />
    </mxCell>
    <mxCell id="node1" parent="1" vertex="1" value="&lt;p style=&quot;margin:0px;margin-top:4px;text-align:center;&quot;&gt;&lt;b&gt;President&lt;/b&gt;&lt;/p&gt;&lt;hr size=&quot;1&quot;/&gt;&lt;p style=&quot;margin:0 0 0 4px;line-height:1.6;&quot;&gt;- capital: int&lt;/p&gt;&lt;hr size=&quot;1&quot;/&gt;&lt;p style=&quot;margin:0 0 0 4px;line-height:1.6;&quot;&gt;+ setCapital(int): void&lt;br/&gt;+ getCapital(): int&lt;br/&gt;+ toString(): String&lt;/p&gt;" style="verticalAlign=top;align=left;overflow=fill;fontSize=14;fontFamily=Helvetica;html=1;rounded=0;shadow=0;comic=0;labelBackgroundColor=none;strokeWidth=1;">
      <mxGeometry x="395" y="2746" width="166" height="147" as="geometry" />
    </mxCell>
    <mxCell id="node6" parent="1" vertex="1" value="&lt;p style=&quot;margin:0px;margin-top:4px;text-align:center;&quot;&gt;&lt;b&gt;ProfessionalDeportivo&lt;/b&gt;&lt;/p&gt;&lt;hr size=&quot;1&quot;/&gt;&lt;p style=&quot;margin:0 0 0 4px;line-height:1.6;&quot;&gt;# nom: String&lt;br/&gt;# cognom: String&lt;/p&gt;&lt;hr size=&quot;1&quot;/&gt;&lt;p style=&quot;margin:0 0 0 4px;line-height:1.6;&quot;&gt;+ getCognom(): String&lt;br/&gt;+ getNom(): String&lt;br/&gt;+ getNomComplet(): String&lt;/p&gt;" style="verticalAlign=top;align=left;overflow=fill;fontSize=14;fontFamily=Helvetica;html=1;rounded=0;shadow=0;comic=0;labelBackgroundColor=none;strokeWidth=1;">
      <mxGeometry x="385" y="1902" width="224" height="160" as="geometry" />
    </mxCell>
    <mxCell id="edge1" edge="1" value="" parent="1" source="node3" target="node6" style="html=1;rounded=1;edgeStyle=orthogonalEdgeStyle;dashed=0;startArrow=none;endArrow=block;endSize=12;strokeColor=#000082;exitX=0.000;exitY=0.500;exitDx=0;exitDy=0;entryX=0.000;entryY=0.806;entryDx=0;entryDy=0;">
      <mxGeometry width="50" height="50" relative="1" as="geometry">
        <Array as="points">
          <mxPoint x="315" y="2444" />
          <mxPoint x="315" y="2031" />
        </Array>
      </mxGeometry>
    </mxCell>
    <mxCell id="edge2" edge="1" value="" parent="1" source="node0" target="node6" style="html=1;rounded=1;edgeStyle=orthogonalEdgeStyle;dashed=0;startArrow=none;endArrow=block;endSize=12;strokeColor=#000082;exitX=1.000;exitY=0.500;exitDx=0;exitDy=0;entryX=0.000;entryY=0.806;entryDx=0;entryDy=0;">
      <mxGeometry width="50" height="50" relative="1" as="geometry">
        <Array as="points">
          <mxPoint x="315" y="2412" />
          <mxPoint x="315" y="2031" />
        </Array>
      </mxGeometry>
    </mxCell>
    <mxCell id="edge0" edge="1" value="" parent="1" source="node1" target="node6" style="html=1;rounded=1;edgeStyle=orthogonalEdgeStyle;dashed=0;startArrow=none;endArrow=block;endSize=12;strokeColor=#000082;exitX=0.000;exitY=0.500;exitDx=0;exitDy=0;entryX=0.000;entryY=0.806;entryDx=0;entryDy=0;">
      <mxGeometry width="50" height="50" relative="1" as="geometry">
        <Array as="points">
          <mxPoint x="315" y="2814" />
          <mxPoint x="315" y="2031" />
        </Array>
      </mxGeometry>
    </mxCell>
  </root>
</mxGraphModel>